HIERARCHY
ROOT Hips
{
  OFFSET -4.35178 90.3298 111.633
  CHANNELS 6 Xposition Yposition Zposition Zrotation Xrotation Yrotation
  JOINT LeftUpLeg
  {
    OFFSET 0.103456 1.85784 10.5485
    CHANNELS 6 Xposition Yposition Zposition Zrotation Xrotation Yrotation
    JOINT LeftLeg
    {
      OFFSET 43.5 -4.2e-05 0
      CHANNELS 6 Xposition Yposition Zposition Zrotation Xrotation Yrotation
      JOINT LeftFoot
      {
        OFFSET 42.3722 1.9e-05 0
        CHANNELS 6 Xposition Yposition Zposition Zrotation Xrotation Yrotation
        JOINT LeftToe
        {
          OFFSET 17.3 0 0
          CHANNELS 6 Xposition Yposition Zposition Zrotation Xrotation Yrotation
          End Site
          {
            OFFSET 0 0 0
          }
        }
      }
    }
  }
  JOINT RightUpLeg
  {
    OFFSET 0.103456 1.85782 -10.5485
    CHANNELS 6 Xposition Yposition Zposition Zrotation Xrotation Yrotation
    JOINT RightLeg
    {
      OFFSET 43.5 -2.7e-05 0
      CHANNELS 6 Xposition Yposition Zposition Zrotation Xrotation Yrotation
      JOINT RightFoot
      {
        OFFSET 42.3723 0 0
        CHANNELS 6 Xposition Yposition Zposition Zrotation Xrotation Yrotation
        JOINT RightToe
        {
          OFFSET 17.3 0 1.7e-05
          CHANNELS 6 Xposition Yposition Zposition Zrotation Xrotation Yrotation
          End Site
          {
            OFFSET 0 0 0
          }
        }
      }
    }
  }
  JOINT Spine
  {
    OFFSET 6.90197 -2.60373 0
    CHANNELS 6 Xposition Yposition Zposition Zrotation Xrotation Yrotation
    JOINT Spine1
    {
      OFFSET 12.5881 0 0
      CHANNELS 6 Xposition Yposition Zposition Zrotation Xrotation Yrotation
      JOINT Spine2
      {
        OFFSET 12.3432 -1.8e-05 0
        CHANNELS 6 Xposition Yposition Zposition Zrotation Xrotation Yrotation
        JOINT Neck
        {
          OFFSET 25.8329 2.3e-05 0
          CHANNELS 6 Xposition Yposition Zposition Zrotation Xrotation Yrotation
          JOINT Head
          {
            OFFSET 11.7666 0 0
            CHANNELS 6 Xposition Yposition Zposition Zrotation Xrotation Yrotation
            End Site
            {
              OFFSET 0 0 0
            }
          }
        }
        JOINT LeftShoulder
        {
          OFFSET 19.7459 -1.48035 6.0001
          CHANNELS 6 Xposition Yposition Zposition Zrotation Xrotation Yrotation
          JOINT LeftArm
          {
            OFFSET 11.2841 1.8e-05 -2e-05
            CHANNELS 6 Xposition Yposition Zposition Zrotation Xrotation Yrotation
            JOINT LeftForeArm
            {
              OFFSET 33 -1.3e-05 1.9e-05
              CHANNELS 6 Xposition Yposition Zposition Zrotation Xrotation Yrotation
              JOINT LeftHand
              {
                OFFSET 25.2 3.2e-05 1.1e-05
                CHANNELS 6 Xposition Yposition Zposition Zrotation Xrotation Yrotation
                End Site
                {
                  OFFSET 0 0 0
                }
              }
            }
          }
        }
        JOINT RightShoulder
        {
          OFFSET 19.7461 -1.48036 -6.00008
          CHANNELS 6 Xposition Yposition Zposition Zrotation Xrotation Yrotation
          JOINT RightArm
          {
            OFFSET 11.2841 0 0
            CHANNELS 6 Xposition Yposition Zposition Zrotation Xrotation Yrotation
            JOINT RightForeArm
            {
              OFFSET 33.0001 1.6e-05 0
              CHANNELS 6 Xposition Yposition Zposition Zrotation Xrotation Yrotation
              JOINT RightHand
              {
                OFFSET 25.1998 0.000123 0.000432
                CHANNELS 6 Xposition Yposition Zposition Zrotation Xrotation Yrotation
                End Site
                {
                  OFFSET 0 0 0
                }
              }
            }
          }
        }
      }
    }
  }
}
MOTION
Frames:	6
Frame Time:	0.0333333
-48.2501 79.402 104.264 43.3532 61.9934 42.8968 0.103456 1.85784 10.5485 -20.3079 18.2096 171.617 43.5 -4.2e-05 1e-05 -61.2469 -7.91828 16.4371 42.3722 1.9e-05 7.10543e-15 80.3913 16.2752 -3.31986 17.3 -1.42109e-14 3e-06 21.4546 -1e-06 0.003093 0.103456 1.85782 -10.5485 -28.6721 -8.48827 174.479 43.5 -2.7e-05 4e-06 -51.4157 6.65409 -19.3003 42.3723 2.84217e-14 1e-05 74.7518 2.84281 0.860955 17.3 -6e-06 1.7e-05 21.4546 -1.9e-05 -0.003116 6.90197 -2.60373 -3e-06 9.43291 1.77498 -0.41815 12.5881 1e-05 8e-06 8.83661 3.5693 -1.12102 12.3432 -1.8e-05 -5e-06 8.47402 3.62397 -1.32309 25.8329 2.3e-05 7e-06 6.66558 -1.41527 -8.32893 11.7666 -8e-06 -6e-06 -8.48879 -7.19386 10.0173 19.7459 -1.48035 6.0001 -176.976 2.16845 -77.2835 11.2841 1.8e-05 -2e-05 -20.6684 -9.63824 53.7774 33 -1.3e-05 1.9e-05 -75.6435 -6.75004 -5.97823 25.2 3.2e-05 1.1e-05 -8.19076 34.3741 -5.6174 19.7461 -1.48036 -6.00008 -175.227 9.83786 69.0429 11.2841 0 -1e-06 -19.7083 -1.28717 -39.3639 33.0001 1.6e-05 -1e-06 -51.7535 -16.6052 21.51 25.1998 0.000123 0.000432 -19.6236 -18.7047 10.6969 
-51.5417 80.3257 107.8 38.6903 66.7151 47.2319 0.103456 1.85784 10.5485 -20.9169 15.7714 173.624 43.5 -4.2e-05 1e-05 -63.9625 -6.84016 14.7878 42.3722 1.9e-05 -1.42109e-14 81.6764 16.8373 -4.39943 17.3 0 3e-06 21.4546 -1e-06 0.003093 0.103456 1.85782 -10.5485 -25.1041 -3.71231 176.109 43.5 -2.7e-05 4e-06 -37.29 0.918948 -18.3117 42.3723 0 1e-05 70.429 1.25092 5.84789 17.3 -6e-06 1.7e-05 21.4546 -1.9e-05 -0.003116 6.90197 -2.60373 -3e-06 8.89484 1.51779 -0.227431 12.5881 1e-05 8e-06 7.75513 3.08216 -0.681956 12.3432 -1.8e-05 -5e-06 7.39718 3.14852 -0.855719 25.8329 2.3e-05 7e-06 8.19906 -0.499574 -8.86813 11.7666 -8e-06 -6e-06 -8.72352 -5.85278 8.86905 19.7459 -1.48035 6.0001 -178.754 5.17147 -81.2021 11.2841 1.8e-05 -2e-05 -30.1883 -9.94749 55.459 33 -1.3e-05 1.9e-05 -81.1417 -4.48953 -6.73753 25.2 3.2e-05 1.1e-05 -10.628 34.1048 -5.72341 19.7461 -1.48036 -6.00008 -175.728 8.61535 71.0575 11.2841 0 -1e-06 -24.3121 -8.12966 -40.8991 33.0001 1.6e-05 -1e-06 -48.5016 -17.6268 19.9122 25.1998 0.000123 0.000432 -18.4082 -16.8214 8.24668 
-54.9246 81.2146 111.219 25.8384 71.834 59.2684 0.103456 1.85784 10.5485 -21.9971 12.9588 176.43 43.5 -4.2e-05 1e-05 -67.158 -4.68567 13.5159 42.3722 1.9e-05 0 81.7409 18.433 -6.62107 17.3 1.42109e-14 3e-06 21.4546 -1e-06 0.003093 0.103456 1.85782 -10.5485 -21.1807 -0.574119 175.9 43.5 -2.7e-05 4e-06 -30.4785 -0.89246 -14.9517 42.3723 2.84217e-14 1e-05 66.4783 -0.0481347 5.02061 17.3 -6e-06 1.7e-05 21.4546 -1.9e-05 -0.003116 6.90197 -2.60373 -3e-06 8.28641 1.08775 0.0535549 12.5881 1e-05 8e-06 6.53561 2.25911 -0.039006 12.3432 -1.8e-05 -5e-06 6.18581 2.3484 -0.164668 25.8329 2.3e-05 7e-06 9.79653 0.635972 -9.08117 11.7666 -8e-06 -6e-06 -7.82255 -4.82993 8.33882 19.7459 -1.48035 6.0001 179.468 8.03192 -85.2942 11.2841 1.8e-05 -2e-05 -36.7887 -12.529 58.1163 33 -1.3e-05 1.9e-05 -86.7538 -1.47713 -7.05937 25.2 3.2e-05 1.1e-05 -11.1755 30.0053 -3.51068 19.7461 -1.48036 -6.00008 -175.624 7.80405 72.8296 11.2841 0 -1e-06 -27.3863 -13.6019 -43.3952 33.0001 1.6e-05 -1e-06 -48.5455 -15.785 18.3698 25.1998 0.000123 0.000432 -17.5116 -16.7727 8.13796 
-58.1647 81.708 114.045 7.85557 74.9965 76.9169 0.103456 1.85784 10.5485 -23.5999 10.7204 179.993 43.5 -4.2e-05 1e-05 -70.3244 -1.61584 11.9049 42.3722 1.9e-05 0 81.6564 19.8647 -9.80177 17.3 0 3e-06 21.4546 -1e-06 0.003093 0.103456 1.85782 -10.5485 -18.9418 -3.5909 172.736 43.5 -2.7e-05 4e-06 -29.5905 0.911781 -9.79891 42.3723 0 1e-05 68.3442 1.98584 4.49428 17.3 -6e-06 1.7e-05 21.4546 -1.9e-05 -0.003116 6.90197 -2.60373 -3e-06 7.72771 0.909098 0.0828504 12.5881 1e-05 8e-06 5.42055 1.89466 0.0552728 12.3432 -1.8e-05 -5e-06 5.07524 1.97359 -0.0496295 25.8329 2.3e-05 7e-06 11.6616 1.51742 -9.43496 11.7666 -8e-06 -6e-06 -8.6259 -4.453 8.44805 19.7459 -1.48035 6.0001 178.107 10.2639 -88.6361 11.2841 1.8e-05 -2e-05 -39.3893 -17.0451 60.5793 33 -1.3e-05 1.9e-05 -92.4562 3.21781 -5.88364 25.2 3.2e-05 1.1e-05 -9.54734 20.7753 2.12013 19.7461 -1.48036 -6.00008 -174.946 7.11769 74.0675 11.2841 0 -1e-06 -28.2687 -15.3851 -46.8346 33.0001 1.6e-05 -1e-06 -48.5575 -14.3401 17.9615 25.1998 0.000123 0.000432 -16.9106 -16.6571 8.3602 
-61.1193 82.3003 117.14 -15.6044 75.8818 100.624 0.103456 1.85784 10.5485 -24.3874 8.16209 -177.221 43.5 -4.2e-05 1e-05 -71.9993 1.89789 10.5377 42.3722 1.9e-05 0 81.3081 21.226 -13.5546 17.3 0 3e-06 21.4546 -1e-06 0.003093 0.103456 1.85782 -10.5485 -17.5525 -6.10104 170.477 43.5 -2.7e-05 4e-06 -31.9839 3.06368 -7.31408 42.3723 0 1e-05 72.7858 5.30809 5.65544 17.3 -6e-06 1.7e-05 21.4546 -1.9e-05 -0.003116 6.90197 -2.60373 -3e-06 7.25144 0.867176 -0.0869352 12.5881 1e-05 8e-06 4.47231 1.77618 -0.271329 12.3432 -1.8e-05 -5e-06 4.12984 1.8208 -0.369854 25.8329 2.3e-05 7e-06 13.032 1.73471 -10.1296 11.7666 -8e-06 -6e-06 -10.0262 -4.1814 8.3702 19.7459 -1.48035 6.0001 178.153 11.3891 -90.1085 11.2841 1.8e-05 -2e-05 -37.6902 -21.7257 62.7768 33 -1.3e-05 1.9e-05 -99.4255 9.49112 -1.2086 25.2 3.2e-05 1.1e-05 -8.05769 10.074 9.00661 19.7461 -1.48036 -6.00008 -174.683 7.57935 74.9668 11.2841 0 -1e-06 -27.4407 -14.866 -50.4161 33.0001 1.6e-05 -1e-06 -48.0664 -11.2025 17.2019 25.1998 0.000123 0.000432 -15.0465 -15.5626 7.96986 
-63.4554 83.3125 119.526 -33.5837 75.0258 118.877 0.103456 1.85784 10.5485 -25.3126 6.23619 -174.921 43.5 -4.2e-05 1e-05 -72.2671 5.18157 9.10955 42.3722 1.9e-05 0 78.1326 22.7966 -15.5668 17.3 -1.42109e-14 3e-06 21.4546 -1e-06 0.003093 0.103456 1.85782 -10.5485 -18.3831 -10.2232 168.328 43.5 -2.7e-05 4e-06 -36.1742 4.29713 -4.87662 42.3723 2.84217e-14 1e-05 74.602 4.38391 5.59244 17.3 -6e-06 1.7e-05 21.4546 -1.9e-05 -0.003116 6.90197 -2.60373 -3e-06 7.08286 1.15631 -0.12579 12.5881 1e-05 8e-06 4.13141 2.34428 -0.386277 12.3432 -1.8e-05 -5e-06 3.78216 2.37551 -0.520092 25.8329 2.3e-05 7e-06 13.5058 1.43674 -10.8406 11.7666 -8e-06 -6e-06 -11.1768 -3.93488 7.81213 19.7459 -1.48035 6.0001 178.732 11.6571 -90.1647 11.2841 1.8e-05 -2e-05 -33.3603 -26.1761 65.5572 33 -1.3e-05 1.9e-05 -106.136 12.7242 5.72437 25.2 3.2e-05 1.1e-05 -7.68975 3.26898 12.7597 19.7461 -1.48036 -6.00008 -174.841 8.12723 75.6743 11.2841 0 -1e-06 -25.5551 -12.8102 -52.553 33.0001 1.6e-05 -1e-06 -45.9821 -7.36797 16.0616 25.1998 0.000123 0.000432 -12.3946 -13.7465 6.87284 
